<svg xmlns="http://www.w3.org/2000/svg" width="512" height="512" viewBox="0 0 512 512">
  <rect width="512" height="512" rx="112" fill="#50C992"/>
  <g transform="translate(88 92) scale(.63)" fill="#FFFFFF">
    <path d="M203.81.48C184.14-2.87 168.05 11.62 168.05 31.57v206.17c-11.64-4.27-24.17-6.72-37.28-6.72-59.9 0-108.47 48.57-108.47 108.47s48.56 108.46 108.47 108.46c34.14 0 64.54-15.82 84.41-40.48l-49.66-49.66c-15.12-15.11-11.71-28.9-9.54-34.14 2.17-5.23 9.51-17.4 30.88-17.4h18.08v-56.88c0-21.13 14.62-38.86 34.27-43.74.03-44.37.03-81.81.03-81.81 140.15 0 131.72 83.97 115.32 132.2-6.42 18.88-2.6 22.05 10.89 7.35C536.47 77.11 298.38 16.57 203.81.48z"/>
    <path d="M301.06 223.88h-50.99c-3.91 0-7.57.95-10.89 2.52-8.62 4.09-14.61 12.8-14.61 22.97v76.51h-37.71c-14.08 0-17.43 8.07-7.47 18.03l46.89 46.9 31.25 31.25c4.98 4.99 11.51 7.47 18.03 7.47s13.05-2.48 18.03-7.47l78.15-78.14c9.95-9.96 6.61-18.03-7.47-18.03h-37.71v-76.51c0-14.09-11.42-25.5-25.51-25.5z"/>
  </g>
</svg>
